<svg width="64" height="64" viewBox="0 0 64 64" fill="none" xmlns="http://www.w3.org/2000/svg">
<path d="M56.6037 23.5661C48.0977 23.7361 43.227 23.8562 39.278 23.7112C38.9087 23.6978 38.5884 23.4645 38.462 23.1171C37.1714 19.5738 36.0403 15.0322 34.0997 7.66215C33.5157 5.44415 30.363 5.44815 29.7803 7.66182C27.843 15.0182 26.7093 19.5708 25.4177 23.1171C25.2913 23.4645 24.971 23.6978 24.6017 23.7112C20.6334 23.8562 15.6964 23.7345 7.27602 23.5661C5.01368 23.5218 4.13302 26.4968 6.05469 27.6955C12.093 31.4625 16.6257 34.0755 19.8333 36.4505C20.1483 36.6838 20.279 37.0902 20.1587 37.4612C18.7334 41.8455 16.6833 47.4598 14.1334 54.9515C13.4327 57.0102 15.794 58.7662 17.5637 57.4814C22.9614 53.5621 27.6767 49.6378 31.3834 46.7224C31.7114 46.4651 32.1687 46.4647 32.4963 46.7228C36.1893 49.6268 40.912 53.5574 46.3157 57.4811C48.0823 58.7645 50.4487 57.0145 49.746 54.9511C47.2 47.4707 45.1444 41.8395 43.721 37.4612C43.6007 37.0902 43.7314 36.6838 44.0467 36.4505C47.255 34.0745 51.7847 31.4638 57.825 27.6955C59.7484 26.4958 58.8637 23.5158 56.6037 23.5661" fill="#FDD835"/>
</svg>
