<svg width="64" height="64" viewBox="0 0 64 64" fill="none" xmlns="http://www.w3.org/2000/svg">
<mask id="path-1-inside-1" fill="white">
<path d="M56.6037 23.5661C48.0977 23.7361 43.227 23.8562 39.278 23.7112C38.9087 23.6978 38.5884 23.4645 38.462 23.1171C37.1714 19.5738 36.0403 15.0322 34.0997 7.66215C33.5157 5.44415 30.363 5.44815 29.7803 7.66182C27.843 15.0182 26.7093 19.5708 25.4177 23.1171C25.2913 23.4645 24.971 23.6978 24.6017 23.7112C20.6334 23.8562 15.6964 23.7345 7.27602 23.5661C5.01368 23.5218 4.13302 26.4968 6.05469 27.6955C12.093 31.4625 16.6257 34.0755 19.8333 36.4505C20.1483 36.6838 20.279 37.0902 20.1587 37.4612C18.7334 41.8455 16.6833 47.4598 14.1334 54.9515C13.4327 57.0102 15.794 58.7662 17.5637 57.4814C22.9614 53.5621 27.6767 49.6378 31.3834 46.7224C31.7114 46.4651 32.1687 46.4647 32.4963 46.7228C36.1893 49.6268 40.912 53.5574 46.3157 57.4811C48.0823 58.7645 50.4487 57.0145 49.746 54.9511C47.2 47.4707 45.1444 41.8395 43.721 37.4612C43.6007 37.0902 43.7314 36.6838 44.0467 36.4505C47.255 34.0745 51.7847 31.4638 57.825 27.6955C59.7484 26.4958 58.8637 23.5158 56.6037 23.5661"/>
</mask>
<path d="M39.278 23.7112L39.3141 22.7118L39.3147 22.7118L39.278 23.7112ZM38.462 23.1171L39.4016 22.7749L39.4018 22.7753L38.462 23.1171ZM34.0997 7.66215L33.1326 7.91679L33.1326 7.91678L34.0997 7.66215ZM29.7803 7.66182L30.7474 7.91636L30.7474 7.91649L29.7803 7.66182ZM25.4177 23.1171L24.4779 22.7753L24.4781 22.7749L25.4177 23.1171ZM24.6017 23.7112L24.5652 22.7118L24.5656 22.7118L24.6017 23.7112ZM7.27602 23.5661L7.29561 22.5663L7.296 22.5663L7.27602 23.5661ZM6.05469 27.6955L6.58393 26.847L6.58398 26.847L6.05469 27.6955ZM19.8333 36.4505L20.4284 35.6468L20.4286 35.6469L19.8333 36.4505ZM20.1587 37.4612L21.1099 37.7697L21.1097 37.7703L20.1587 37.4612ZM14.1334 54.9515L13.1867 54.6293L13.1867 54.6293L14.1334 54.9515ZM17.5637 57.4814L18.1512 58.2906L18.1512 58.2906L17.5637 57.4814ZM31.3834 46.7224L30.7651 45.9364L30.7662 45.9356L31.3834 46.7224ZM32.4963 46.7228L31.8782 47.5089L31.8776 47.5084L32.4963 46.7228ZM46.3157 57.4811L46.9032 56.672L46.9034 56.6721L46.3157 57.4811ZM49.746 54.9511L48.7994 55.2734L48.7993 55.2733L49.746 54.9511ZM43.721 37.4612L42.77 37.7703L42.7698 37.7697L43.721 37.4612ZM44.0467 36.4505L44.6418 37.2541L44.6415 37.2543L44.0467 36.4505ZM57.825 27.6955L57.2957 26.847L57.2958 26.847L57.825 27.6955ZM56.6237 24.5659C48.1355 24.7356 43.2266 24.8568 39.2413 24.7105L39.3147 22.7118C43.2275 22.8555 48.0598 22.7367 56.5837 22.5663L56.6237 24.5659ZM39.2419 24.7105C38.4651 24.6825 37.7876 24.1886 37.5223 23.459L39.4018 22.7753C39.3961 22.7598 39.3844 22.7433 39.3675 22.731C39.3505 22.7186 39.331 22.7124 39.3141 22.7118L39.2419 24.7105ZM37.5224 23.4594C36.2113 19.86 35.0645 15.2534 33.1326 7.91679L35.0667 7.40751C37.0162 14.8109 38.1314 19.2876 39.4016 22.7749L37.5224 23.4594ZM33.1326 7.91678C32.8109 6.69493 31.0691 6.69432 30.7474 7.91636L28.8133 7.40728C29.657 4.20199 34.2204 4.19337 35.0667 7.40753L33.1326 7.91678ZM30.7474 7.91649C28.8189 15.2393 27.6694 19.857 26.3573 23.4594L24.4781 22.7749C25.7493 19.2846 26.8672 14.797 28.8133 7.40715L30.7474 7.91649ZM26.3574 23.459C26.0921 24.1886 25.4146 24.6825 24.6378 24.7105L24.5656 22.7118C24.5487 22.7124 24.5292 22.7186 24.5122 22.731C24.4953 22.7433 24.4836 22.7598 24.4779 22.7753L26.3574 23.459ZM24.6382 24.7105C20.6337 24.8568 15.6585 24.7339 7.25603 24.5659L7.296 22.5663C15.7342 22.735 20.633 22.8555 24.5652 22.7118L24.6382 24.7105ZM7.25643 24.566C6.01427 24.5416 5.51964 26.1831 6.58393 26.847L5.52544 28.544C2.7464 26.8105 4.0131 22.502 7.29561 22.5663L7.25643 24.566ZM6.58398 26.847C12.5723 30.5828 17.1782 33.2403 20.4284 35.6468L19.2383 37.2542C16.0732 34.9107 11.6138 32.3421 5.52539 28.5439L6.58398 26.847ZM20.4286 35.6469C21.0868 36.1345 21.3636 36.9876 21.1099 37.7697L19.2075 37.1526C19.1945 37.1927 19.2099 37.2331 19.2381 37.254L20.4286 35.6469ZM21.1097 37.7703C19.6835 42.1572 17.618 47.8174 15.08 55.2737L13.1867 54.6293C15.7487 47.1022 17.7832 41.5337 19.2077 37.152L21.1097 37.7703ZM15.08 55.2737C14.6914 56.4156 16.0019 57.3795 16.9762 56.6722L18.1512 58.2906C15.5862 60.1528 12.174 57.6048 13.1867 54.6293L15.08 55.2737ZM16.9761 56.6722C22.3534 52.7678 27.0307 48.8736 30.7651 45.9364L32.0016 47.5084C28.3227 50.4019 23.5693 54.3565 18.1512 58.2906L16.9761 56.6722ZM30.7662 45.9356C31.4558 45.3947 32.4237 45.3927 33.1151 45.9372L31.8776 47.5084C31.9137 47.5368 31.9669 47.5356 32.0005 47.5093L30.7662 45.9356ZM33.1145 45.9367C36.8355 48.8628 41.5199 52.763 46.9032 56.672L45.7281 58.2903C40.3041 54.3519 35.5432 50.3909 31.8782 47.5089L33.1145 45.9367ZM46.9034 56.6721C47.8783 57.3803 49.1884 56.4157 48.7994 55.2734L50.6926 54.6287C51.709 57.6133 48.2864 60.1487 45.728 58.2902L46.9034 56.6721ZM48.7993 55.2733C46.2654 47.8284 44.1942 42.1512 42.77 37.7703L44.672 37.152C46.0945 41.5277 48.1346 47.1131 50.6927 54.6289L48.7993 55.2733ZM42.7698 37.7697C42.5161 36.9875 42.793 36.1342 43.4519 35.6466L44.6415 37.2543C44.6697 37.2335 44.6853 37.1928 44.6722 37.1526L42.7698 37.7697ZM43.4515 35.6469C46.7025 33.2393 51.3055 30.5841 57.2957 26.847L58.3543 28.5439C52.2639 32.3435 47.8075 34.9097 44.6418 37.2541L43.4515 35.6469ZM57.2958 26.847C58.3648 26.1802 57.8593 24.5384 56.6259 24.5659L56.5814 22.5664C59.868 22.4932 61.1319 26.8114 58.3543 28.544L57.2958 26.847Z" fill="black" mask="url(#path-1-inside-1)"/>
</svg>
